<svg xmlns="http://www.w3.org/2000/svg" width="30" height="30" viewBox="0 0 30 30">
    <path fill="#FFF" fill-rule="evenodd" d="M15 0c2.07 0 4.019.39 5.845 1.172A15.052 15.052 0 0 1 25.62 4.38a15.052 15.052 0 0 1 3.208 4.775C29.61 10.981 30 12.93 30 15s-.39 4.019-1.172 5.845a15.052 15.052 0 0 1-3.208 4.775 15.052 15.052 0 0 1-4.775 3.208C19.019 29.61 17.07 30 15 30s-4.019-.39-5.845-1.172A15.052 15.052 0 0 1 4.38 25.62a15.052 15.052 0 0 1-3.208-4.775C.39 19.019 0 17.07 0 15s.39-4.019 1.172-5.845A15.052 15.052 0 0 1 4.38 4.38a15.052 15.052 0 0 1 4.775-3.208C10.981.39 12.93 0 15 0zm0 28.154c1.816 0 3.52-.346 5.112-1.04a13.246 13.246 0 0 0 4.16-2.827 13.552 13.552 0 0 0 2.813-4.175c.693-1.592 1.04-3.296 1.04-5.112 0-1.816-.347-3.52-1.04-5.112a13.37 13.37 0 0 0-2.813-4.16 13.37 13.37 0 0 0-4.16-2.813c-1.592-.693-3.296-1.04-5.112-1.04-1.816 0-3.52.347-5.112 1.04a13.37 13.37 0 0 0-4.16 2.813 13.37 13.37 0 0 0-2.813 4.16c-.693 1.592-1.04 3.296-1.04 5.112 0 1.816.347 3.52 1.04 5.112a13.552 13.552 0 0 0 2.813 4.175 13.246 13.246 0 0 0 4.16 2.827c1.592.694 3.296 1.04 5.112 1.04zm6.563-14.091c.273 0 .498.087.673.263.176.176.264.4.264.674a.926.926 0 0 1-.264.66.887.887 0 0 1-.674.277H10.957l3.457 3.428c.176.196.264.42.264.674a.978.978 0 0 1-.264.674 1.335 1.335 0 0 1-.322.19.908.908 0 0 1-.352.074.908.908 0 0 1-.351-.074 1.335 1.335 0 0 1-.323-.19L7.53 15.029l5.537-5.683a.926.926 0 0 1 .674-.293c.254 0 .479.097.674.293a.894.894 0 0 1 .264.659.894.894 0 0 1-.264.66l-3.398 3.398h10.546z"/>
</svg>
