<svg xmlns="http://www.w3.org/2000/svg" width="30" height="30" viewBox="0 0 30 30">
    <path fill="#FFF" fill-rule="evenodd" d="M15 0c-2.07 0-4.019.39-5.845 1.172A15.052 15.052 0 0 0 4.38 4.38a15.052 15.052 0 0 0-3.208 4.775C.39 10.981 0 12.93 0 15s.39 4.019 1.172 5.845A15.052 15.052 0 0 0 4.38 25.62a15.052 15.052 0 0 0 4.775 3.208C10.981 29.61 12.93 30 15 30s4.019-.39 5.845-1.172a15.052 15.052 0 0 0 4.775-3.208 15.052 15.052 0 0 0 3.208-4.775C29.61 19.019 30 17.07 30 15s-.39-4.019-1.172-5.845A15.052 15.052 0 0 0 25.62 4.38a15.052 15.052 0 0 0-4.775-3.208C19.019.39 17.07 0 15 0zm0 28.154c-1.816 0-3.52-.346-5.112-1.04a13.246 13.246 0 0 1-4.16-2.827 13.552 13.552 0 0 1-2.813-4.175c-.693-1.591-1.04-3.296-1.04-5.112 0-1.816.347-3.52 1.04-5.112a13.37 13.37 0 0 1 2.813-4.16 13.37 13.37 0 0 1 4.16-2.813c1.592-.693 3.296-1.04 5.112-1.04 1.816 0 3.52.347 5.112 1.04a13.37 13.37 0 0 1 4.16 2.813 13.37 13.37 0 0 1 2.813 4.16c.693 1.591 1.04 3.296 1.04 5.112 0 1.816-.347 3.52-1.04 5.112a13.552 13.552 0 0 1-2.813 4.175 13.246 13.246 0 0 1-4.16 2.827c-1.592.694-3.296 1.04-5.112 1.04zm-.586-18.808a.926.926 0 0 0-.674-.293.926.926 0 0 0-.674.293L7.53 15.029l5.537 5.684c.098.078.205.141.323.19a.908.908 0 0 0 .351.074.908.908 0 0 0 .352-.074c.117-.049.224-.112.322-.19a.978.978 0 0 0 .264-.674.978.978 0 0 0-.264-.674l-3.457-3.427h10.605a.887.887 0 0 0 .674-.279A.926.926 0 0 0 22.5 15a.912.912 0 0 0-.264-.674.913.913 0 0 0-.674-.264H11.017l3.398-3.398a.894.894 0 0 0 .264-.66.894.894 0 0 0-.264-.658z"/>
</svg>
