<svg xmlns="http://www.w3.org/2000/svg" width="47" height="47" viewBox="0 0 47 47">
    <path fill="#16D3BF" fill-rule="nonzero" d="M5.423 0a5.423 5.423 0 1 0 0 10.845A5.423 5.423 0 0 0 5.422 0zM23.5 0a5.423 5.423 0 1 0 0 10.845A5.423 5.423 0 0 0 23.5 0zm18.077 10.846a5.423 5.423 0 1 0 0-10.845 5.423 5.423 0 0 0 0 10.845zm-36.154 7.23a5.423 5.423 0 1 0 0 10.846 5.423 5.423 0 0 0 0-10.845zm18.077 0a5.423 5.423 0 1 0 0 10.846 5.423 5.423 0 0 0 0-10.845zm18.077 0a5.423 5.423 0 1 0 0 10.846 5.423 5.423 0 0 0 0-10.845zM5.423 36.155a5.423 5.423 0 1 0 0 10.845 5.423 5.423 0 0 0 0-10.845zm18.077 0a5.423 5.423 0 1 0 0 10.845 5.423 5.423 0 0 0 0-10.845zm18.077 0a5.423 5.423 0 1 0 0 10.845 5.423 5.423 0 0 0 0-10.845z"/>
</svg>
