<svg xmlns="http://www.w3.org/2000/svg" width="269" height="269" viewBox="0 0 269 269">
    <g fill="none" fill-rule="evenodd" opacity=".912" transform="translate(8 8)">
        <circle cx="126.5" cy="126.5" r="126.5" stroke="#2B4765" stroke-linecap="square" stroke-width="15" opacity=".05"/>
        <ellipse cx="126.5" cy="126" stroke="#2B4765" stroke-linecap="square" stroke-width="15" opacity=".1" rx="104.5" ry="104"/>
        <circle cx="126" cy="126" r="87" fill="#2B4765"/>
        <path fill="#16D3BF" d="M126.5 178C97.446 178 88 154.19 88 124.785 88 95.38 97.446 72 126.5 72c29.054 0 38.5 23.38 38.5 52.785 0 29.404-9.446 53.215-38.5 53.215zm0-22.95c9.875 0 12.738-13.483 12.738-30.265 0-16.639-2.863-29.835-12.738-29.835s-12.738 13.196-12.738 29.835c0 16.782 2.863 30.265 12.738 30.265zM85 93.5c0 1.556-.642 2.836-1.901 3.865-.815.678-2.222 1.18-3.21 1.255l-.05 1.38h-1.777l.05-1.33c-1.902-.075-3.927-1.029-5.112-2.56l1.827-2.509c.346.552.889 1.029 1.605 1.43.74.402 1.383.603 1.95.628l.075-4.191-.84-.351c-1.012-.427-1.753-.854-2.222-1.23-1.16-.903-1.728-2.108-1.728-3.588s.543-2.685 1.63-3.639c.814-.728 1.95-1.18 3.456-1.305l.05-1.355h1.777l-.024 1.405c1.555.126 3.185.853 4.148 2.033l-1.531 2.484c-.864-.978-1.827-1.53-2.889-1.681l-.099 4.015 1.556.678C83.914 89.912 85 91.443 85 93.5zm-6.617-5.922l.271.126.074-3.488c-.963.075-1.605.702-1.605 1.681 0 .728.42 1.28 1.26 1.681zm3.21 6.4c0-.804-.395-1.406-1.186-1.807l-.395-.201-.074 3.739c.815-.075 1.655-.803 1.655-1.732z"/>
    </g>
</svg>
