<svg xmlns="http://www.w3.org/2000/svg" width="1175" height="552" viewBox="0 0 1175 552">
    <g fill="none" fill-rule="evenodd">
        <path fill="#4A4A4A" d="M159.994 123.66c-.99 1.098-2.321 1.638-3.96 1.638-1.53 0-2.79-.522-3.761-1.548-.972-1.026-1.458-2.358-1.458-3.978s.486-2.934 1.458-3.96c.971-1.026 2.232-1.53 3.762-1.53 1.673 0 3.167.756 3.87 1.638l.63-.72c-1.207-1.206-2.7-1.8-4.5-1.8-1.782 0-3.258.594-4.464 1.8-1.207 1.206-1.8 2.736-1.8 4.608 0 1.89.594 3.42 1.764 4.626 1.188 1.188 2.681 1.782 4.5 1.782 1.89 0 3.42-.648 4.59-1.926l-.63-.63zm6.719 2.52c-1.206 0-2.214-.414-3.042-1.224-.81-.81-1.224-1.854-1.224-3.096s.414-2.286 1.224-3.114c.828-.828 1.836-1.242 3.042-1.242 1.206 0 2.232.414 3.042 1.242.828.828 1.242 1.872 1.242 3.114 0 1.242-.414 2.286-1.242 3.096-.81.81-1.836 1.224-3.042 1.224zm0-7.866c-.99 0-1.782.342-2.376 1.008-.594.666-.9 1.512-.9 2.502 0 .99.306 1.836.9 2.502.594.666 1.386 1.008 2.376 1.008s1.8-.342 2.394-1.008c.594-.666.9-1.512.9-2.502 0-.99-.306-1.836-.9-2.502-.594-.666-1.404-1.008-2.394-1.008zm11.993 5.4c0-.738-.306-1.332-.954-1.71a5.194 5.194 0 0 0-.793-.432 8.601 8.601 0 0 0-.864-.342c-1.278-.45-1.925-.828-1.925-1.602 0-.846.648-1.332 1.602-1.332.81 0 1.512.324 2.088.954l.575-.576c-.684-.774-1.566-1.17-2.627-1.17-.666 0-1.26.198-1.782.594-.505.378-.757.936-.757 1.638 0 .702.325 1.278.9 1.638.576.36.828.468 1.386.666.018 0 .126.036.325.108l.431.162c.162.054.648.252.81.396.36.27.648.576.648 1.044 0 1.026-.828 1.584-1.962 1.584-1.007 0-1.817-.432-2.411-1.314l-.666.54c.648 1.08 1.656 1.62 3.042 1.62.81 0 1.512-.216 2.07-.666.575-.45.863-1.044.863-1.8zm5.728 1.44c-.144.072-.486.18-.792.18-.522 0-.882-.234-1.044-.666-.144-.45-.18-.792-.18-1.35v-4.788h2.124v-.846h-2.106v-2.664h-.954v2.664h-1.26v.846h1.26v4.23c0 .738.018 1.278.054 1.62.036.342.126.63.252.9.324.594.846.9 1.584.9.54 0 .954-.09 1.26-.27l-.09-.81-.108.054zm9.765 0c-.144.072-.486.18-.792.18-.522 0-.882-.234-1.044-.666-.144-.45-.18-.792-.18-1.35v-4.788h2.124v-.846h-2.106v-2.664h-.954v2.664h-1.26v.846h1.26v4.23c0 .738.018 1.278.054 1.62.036.342.126.63.252.9.324.594.846.9 1.584.9.54 0 .954-.09 1.26-.27l-.09-.81-.108.054zm6.016 1.026c-1.206 0-2.214-.414-3.042-1.224-.81-.81-1.224-1.854-1.224-3.096s.414-2.286 1.224-3.114c.828-.828 1.837-1.242 3.042-1.242 1.207 0 2.232.414 3.042 1.242.828.828 1.243 1.872 1.243 3.114 0 1.242-.415 2.286-1.243 3.096-.81.81-1.835 1.224-3.042 1.224zm0-7.866c-.99 0-1.781.342-2.376 1.008-.594.666-.9 1.512-.9 2.502 0 .99.306 1.836.9 2.502.595.666 1.387 1.008 2.376 1.008.99 0 1.8-.342 2.394-1.008.594-.666.9-1.512.9-2.502 0-.99-.305-1.836-.9-2.502-.594-.666-1.404-1.008-2.394-1.008zm17.145 6.102c-.378.414-1.386.918-2.52.918-.935 0-1.71-.324-2.304-.99-.594-.666-.881-1.53-.881-2.574 0-1.008.305-1.836.917-2.466.63-.63 1.368-.954 2.232-.954 1.117 0 2.035.414 2.737 1.224l.594-.63c-.738-.954-1.837-1.44-3.294-1.44-1.135 0-2.107.414-2.935 1.224-.828.81-1.242 1.854-1.242 3.096 0 1.26.397 2.304 1.189 3.132.791.81 1.763 1.224 2.897 1.224 1.458 0 2.61-.486 3.42-1.44l-.54-.63-.27.306zm8.717-3.366V126h-.954v-1.17c-.774.9-1.71 1.35-2.826 1.35-.81 0-1.476-.234-1.998-.72s-.792-1.08-.792-1.8c0-1.494 1.152-2.43 3.33-2.52l2.286-.09v-.45c0-1.458-.972-2.286-2.34-2.286-.558 0-1.062.09-1.53.27-.45.162-.774.324-.936.45l-.36-.684a4.985 4.985 0 0 1 2.79-.846c1.098 0 1.926.306 2.52.936.54.594.81 1.476.81 2.61zm-.954 2.79v-2.07l-2.376.144c-1.53.09-2.304.666-2.304 1.746 0 .954.738 1.71 2.034 1.71 1.224 0 2.142-.738 2.646-1.53zm4.127-10.26V126h.935v-12.42h-.935zm4.378 0V126h.936v-12.42h-.936zm13.941 4.068v4.482c0 .9-.216 1.674-.648 2.304-.414.63-1.062.936-1.926.936-.864 0-1.458-.288-1.728-.846s-.342-1.044-.342-1.764v-5.112h-.936v4.968c0 1.206.216 2.088.63 2.628.486.63 1.224.936 2.25.936 1.242 0 2.142-.504 2.7-1.53V126h.936v-8.352h-.936zm9.275 6.066c0-.738-.306-1.332-.954-1.71a5.194 5.194 0 0 0-.792-.432 8.601 8.601 0 0 0-.865-.342c-1.278-.45-1.925-.828-1.925-1.602 0-.846.648-1.332 1.602-1.332.81 0 1.512.324 2.088.954l.576-.576c-.685-.774-1.567-1.17-2.629-1.17-.665 0-1.26.198-1.781.594-.504.378-.756.936-.756 1.638 0 .702.324 1.278.9 1.638.576.36.828.468 1.386.666.018 0 .126.036.324.108l.431.162c.162.054.648.252.81.396.36.27.649.576.649 1.044 0 1.026-.828 1.584-1.962 1.584-1.008 0-1.819-.432-2.412-1.314l-.666.54c.648 1.08 1.656 1.62 3.042 1.62.81 0 1.512-.216 2.07-.666.576-.45.864-1.044.864-1.8zM10.678 280.66c-.99 1.098-2.322 1.638-3.96 1.638-1.53 0-2.79-.522-3.762-1.548s-1.458-2.358-1.458-3.978.486-2.934 1.458-3.96c.972-1.026 2.232-1.53 3.762-1.53 1.674 0 3.168.756 3.87 1.638l.63-.72c-1.206-1.206-2.7-1.8-4.5-1.8-1.782 0-3.258.594-4.464 1.8-1.206 1.206-1.8 2.736-1.8 4.608 0 1.89.594 3.42 1.764 4.626 1.188 1.188 2.682 1.782 4.5 1.782 1.89 0 3.42-.648 4.59-1.926l-.63-.63zm6.718 2.52c-1.206 0-2.214-.414-3.042-1.224-.81-.81-1.223-1.854-1.223-3.096s.413-2.286 1.223-3.114c.829-.828 1.837-1.242 3.043-1.242 1.206 0 2.232.414 3.042 1.242.828.828 1.241 1.872 1.241 3.114 0 1.242-.413 2.286-1.241 3.096-.81.81-1.837 1.224-3.043 1.224zm0-7.866c-.99 0-1.782.342-2.376 1.008-.593.666-.9 1.512-.9 2.502 0 .99.307 1.836.9 2.502.595.666 1.387 1.008 2.377 1.008.99 0 1.8-.342 2.394-1.008.593-.666.9-1.512.9-2.502 0-.99-.306-1.836-.9-2.502-.595-.666-1.404-1.008-2.395-1.008zm11.993 5.4c0-.738-.306-1.332-.954-1.71a5.194 5.194 0 0 0-.792-.432 8.601 8.601 0 0 0-.864-.342c-1.278-.45-1.926-.828-1.926-1.602 0-.846.648-1.332 1.602-1.332.81 0 1.512.324 2.088.954l.576-.576c-.684-.774-1.566-1.17-2.628-1.17-.666 0-1.26.198-1.782.594-.504.378-.756.936-.756 1.638 0 .702.324 1.278.9 1.638.576.36.828.468 1.386.666.018 0 .126.036.324.108l.432.162c.162.054.648.252.81.396.36.27.648.576.648 1.044 0 1.026-.828 1.584-1.962 1.584-1.008 0-1.818-.432-2.412-1.314l-.666.54c.648 1.08 1.656 1.62 3.042 1.62.81 0 1.512-.216 2.07-.666.576-.45.864-1.044.864-1.8zm5.729 1.44c-.145.072-.486.18-.793.18-.522 0-.882-.234-1.044-.666-.143-.45-.18-.792-.18-1.35v-4.788h2.124v-.846H33.12v-2.664h-.954v2.664h-1.26v.846h1.26v4.23c0 .738.018 1.278.053 1.62.036.342.127.63.252.9.325.594.847.9 1.585.9.54 0 .954-.09 1.26-.27l-.09-.81-.108.054zm9.764 0c-.143.072-.485.18-.791.18-.523 0-.883-.234-1.044-.666-.144-.45-.18-.792-.18-1.35v-4.788h2.123v-.846h-2.105v-2.664h-.954v2.664h-1.26v.846h1.26v4.23c0 .738.018 1.278.053 1.62.036.342.127.63.252.9.325.594.847.9 1.585.9.54 0 .954-.09 1.26-.27l-.09-.81-.108.054zm6.017 1.026c-1.206 0-2.214-.414-3.042-1.224-.81-.81-1.224-1.854-1.224-3.096s.414-2.286 1.224-3.114c.828-.828 1.836-1.242 3.042-1.242 1.206 0 2.232.414 3.042 1.242.828.828 1.242 1.872 1.242 3.114 0 1.242-.414 2.286-1.242 3.096-.81.81-1.836 1.224-3.042 1.224zm0-7.866c-.99 0-1.782.342-2.376 1.008-.594.666-.9 1.512-.9 2.502 0 .99.306 1.836.9 2.502.594.666 1.386 1.008 2.376 1.008s1.8-.342 2.394-1.008c.594-.666.9-1.512.9-2.502 0-.99-.306-1.836-.9-2.502-.594-.666-1.404-1.008-2.394-1.008zm14.301 6.84c-.144.072-.486.18-.792.18-.522 0-.882-.234-1.044-.666-.144-.45-.18-.792-.18-1.35v-4.788h2.124v-.846h-2.106v-2.664h-.954v2.664h-1.26v.846h1.26v4.23c0 .738.018 1.278.054 1.62.036.342.126.63.252.9.324.594.846.9 1.584.9.54 0 .954-.09 1.26-.27l-.09-.81-.108.054zm8.14-4.104V283h-.954v-1.17c-.773.9-1.71 1.35-2.825 1.35-.81 0-1.477-.234-1.999-.72s-.791-1.08-.791-1.8c0-1.494 1.151-2.43 3.33-2.52l2.285-.09v-.45c0-1.458-.971-2.286-2.34-2.286-.558 0-1.062.09-1.53.27-.45.162-.773.324-.936.45l-.36-.684a4.985 4.985 0 0 1 2.79-.846c1.099 0 1.926.306 2.52.936.54.594.81 1.476.81 2.61zm-.954 2.79v-2.07l-2.376.144c-1.53.09-2.303.666-2.303 1.746 0 .954.738 1.71 2.034 1.71 1.224 0 2.141-.738 2.645-1.53zm4.127-10.26V283h.936v-12.42h-.936zm10.498 4.068h-1.17l-4.013 3.762v-7.83h-.937V283h.936v-3.546l1.135-1.044 3.42 4.59h1.17l-3.96-5.166 3.42-3.186zm9.748 7.506c-.144.072-.487.18-.793.18-.521 0-.881-.234-1.043-.666-.145-.45-.18-.792-.18-1.35v-4.788h2.124v-.846H94.76v-2.664h-.954v2.664h-1.26v.846h1.26v4.23c0 .738.019 1.278.055 1.62.035.342.126.63.251.9.325.594.847.9 1.585.9.54 0 .953-.09 1.26-.27l-.09-.81-.109.054zm6.016 1.026c-1.206 0-2.214-.414-3.042-1.224-.81-.81-1.224-1.854-1.224-3.096s.414-2.286 1.224-3.114c.828-.828 1.836-1.242 3.042-1.242 1.206 0 2.232.414 3.042 1.242.828.828 1.242 1.872 1.242 3.114 0 1.242-.414 2.286-1.242 3.096-.81.81-1.836 1.224-3.042 1.224zm0-7.866c-.99 0-1.782.342-2.376 1.008-.594.666-.9 1.512-.9 2.502 0 .99.306 1.836.9 2.502.594.666 1.386 1.008 2.376 1.008s1.8-.342 2.394-1.008c.594-.666.9-1.512.9-2.502 0-.99-.306-1.836-.9-2.502-.594-.666-1.404-1.008-2.394-1.008zm16.839 2.736V283h-.954v-1.17c-.774.9-1.71 1.35-2.826 1.35-.81 0-1.476-.234-1.998-.72s-.792-1.08-.792-1.8c0-1.494 1.152-2.43 3.33-2.52l2.286-.09v-.45c0-1.458-.972-2.286-2.34-2.286-.558 0-1.062.09-1.53.27-.45.162-.774.324-.936.45l-.36-.684a4.985 4.985 0 0 1 2.79-.846c1.098 0 1.926.306 2.52.936.54.594.81 1.476.81 2.61zm-.954 2.79v-2.07l-2.376.144c-1.53.09-2.304.666-2.304 1.746 0 .954.738 1.71 2.034 1.71 1.224 0 2.142-.738 2.646-1.53zm14.265.576c-.378.414-1.386.918-2.52.918-.936 0-1.71-.324-2.304-.99-.594-.666-.882-1.53-.882-2.574 0-1.008.306-1.836.918-2.466.63-.63 1.368-.954 2.232-.954 1.116 0 2.034.414 2.736 1.224l.594-.63c-.738-.954-1.836-1.44-3.294-1.44-1.134 0-2.106.414-2.934 1.224-.828.81-1.242 1.854-1.242 3.096 0 1.26.396 2.304 1.188 3.132.792.81 1.764 1.224 2.898 1.224 1.458 0 2.61-.486 3.42-1.44l-.54-.63-.27.306zm6.593 1.764c-1.207 0-2.214-.414-3.042-1.224-.81-.81-1.225-1.854-1.225-3.096s.415-2.286 1.225-3.114c.828-.828 1.835-1.242 3.042-1.242 1.206 0 2.232.414 3.042 1.242.827.828 1.242 1.872 1.242 3.114 0 1.242-.415 2.286-1.242 3.096-.81.81-1.837 1.224-3.042 1.224zm0-7.866c-.99 0-1.782.342-2.376 1.008-.594.666-.9 1.512-.9 2.502 0 .99.306 1.836.9 2.502.594.666 1.386 1.008 2.376 1.008s1.8-.342 2.393-1.008c.595-.666.9-1.512.9-2.502 0-.99-.305-1.836-.9-2.502-.594-.666-1.404-1.008-2.393-1.008zm13.504 2.7c0-2.232-.72-3.51-2.952-3.51-1.206 0-2.286.684-2.7 1.692v-1.548h-.936V283h.936v-4.14c0-2.088.936-3.546 2.664-3.546.864 0 1.422.306 1.692.882.27.558.342 1.08.342 1.854V283h.954v-4.986zm8.249 2.7c0-.738-.306-1.332-.954-1.71a5.194 5.194 0 0 0-.793-.432 8.601 8.601 0 0 0-.863-.342c-1.279-.45-1.927-.828-1.927-1.602 0-.846.648-1.332 1.602-1.332.81 0 1.512.324 2.088.954l.576-.576c-.684-.774-1.565-1.17-2.627-1.17-.666 0-1.26.198-1.782.594-.505.378-.757.936-.757 1.638 0 .702.325 1.278.9 1.638.576.36.828.468 1.386.666.018 0 .126.036.325.108l.431.162c.162.054.648.252.81.396.36.27.648.576.648 1.044 0 1.026-.828 1.584-1.962 1.584-1.008 0-1.818-.432-2.412-1.314l-.666.54c.648 1.08 1.656 1.62 3.042 1.62.81 0 1.512-.216 2.07-.666.576-.45.864-1.044.864-1.8zm7.996-6.066v4.482c0 .9-.216 1.674-.648 2.304-.414.63-1.062.936-1.926.936-.864 0-1.458-.288-1.728-.846s-.342-1.044-.342-1.764v-5.112h-.936v4.968c0 1.206.216 2.088.63 2.628.486.63 1.224.936 2.25.936 1.242 0 2.142-.504 2.7-1.53V283h.936v-8.352h-.936zm4.288-4.068V283h.936v-12.42h-.936zm7.511 11.574c-.144.072-.486.18-.792.18-.522 0-.882-.234-1.044-.666-.144-.45-.18-.792-.18-1.35v-4.788h2.124v-.846h-2.106v-2.664h-.954v2.664h-1.26v.846h1.26v4.23c0 .738.018 1.278.054 1.62.036.342.126.63.252.9.324.594.846.9 1.584.9.54 0 .954-.09 1.26-.27l-.09-.81-.108.054zm8.14-4.104V283h-.953v-1.17c-.774.9-1.71 1.35-2.826 1.35-.81 0-1.476-.234-1.998-.72-.523-.486-.792-1.08-.792-1.8 0-1.494 1.151-2.43 3.33-2.52l2.285-.09v-.45c0-1.458-.972-2.286-2.34-2.286-.558 0-1.061.09-1.53.27-.45.162-.774.324-.936.45l-.36-.684a4.985 4.985 0 0 1 2.79-.846c1.099 0 1.927.306 2.52.936.54.594.81 1.476.81 2.61zm-.953 2.79v-2.07l-2.376.144c-1.53.09-2.305.666-2.305 1.746 0 .954.738 1.71 2.035 1.71 1.224 0 2.142-.738 2.645-1.53zm10.624-2.826c0-2.232-.72-3.51-2.952-3.51-1.206 0-2.286.684-2.7 1.692v-1.548h-.936V283h.936v-4.14c0-2.088.936-3.546 2.664-3.546.864 0 1.422.306 1.692.882.27.558.342 1.08.342 1.854V283h.954v-4.986zm6.394 4.14c-.143.072-.485.18-.791.18-.522 0-.882-.234-1.044-.666-.144-.45-.18-.792-.18-1.35v-4.788h2.124v-.846h-2.106v-2.664h-.954v2.664h-1.26v.846h1.26v4.23c0 .738.018 1.278.054 1.62.036.342.126.63.251.9.325.594.846.9 1.584.9.54 0 .954-.09 1.26-.27l-.09-.81-.107.054zM82.302 436.66c-.99 1.098-2.322 1.638-3.96 1.638-1.53 0-2.79-.522-3.762-1.548s-1.458-2.358-1.458-3.978.486-2.934 1.458-3.96c.972-1.026 2.232-1.53 3.762-1.53 1.674 0 3.168.756 3.87 1.638l.63-.72c-1.206-1.206-2.7-1.8-4.5-1.8-1.782 0-3.258.594-4.464 1.8-1.206 1.206-1.8 2.736-1.8 4.608 0 1.89.594 3.42 1.764 4.626 1.188 1.188 2.682 1.782 4.5 1.782 1.89 0 3.42-.648 4.59-1.926l-.63-.63zm6.718 2.52c-1.206 0-2.213-.414-3.041-1.224-.81-.81-1.225-1.854-1.225-3.096s.414-2.286 1.224-3.114c.829-.828 1.837-1.242 3.043-1.242 1.206 0 2.231.414 3.041 1.242.829.828 1.243 1.872 1.243 3.114 0 1.242-.415 2.286-1.243 3.096-.81.81-1.835 1.224-3.041 1.224zm0-7.866c-.99 0-1.781.342-2.376 1.008-.594.666-.9 1.512-.9 2.502 0 .99.306 1.836.9 2.502.594.666 1.386 1.008 2.376 1.008s1.8-.342 2.395-1.008c.593-.666.9-1.512.9-2.502 0-.99-.306-1.836-.9-2.502-.595-.666-1.405-1.008-2.395-1.008zm11.993 5.4c0-.738-.306-1.332-.954-1.71a5.194 5.194 0 0 0-.792-.432 8.601 8.601 0 0 0-.864-.342c-1.278-.45-1.926-.828-1.926-1.602 0-.846.648-1.332 1.602-1.332.81 0 1.512.324 2.088.954l.576-.576c-.684-.774-1.566-1.17-2.628-1.17-.666 0-1.26.198-1.782.594-.504.378-.756.936-.756 1.638 0 .702.324 1.278.9 1.638.576.36.828.468 1.386.666.018 0 .126.036.324.108l.432.162c.162.054.648.252.81.396.36.27.648.576.648 1.044 0 1.026-.828 1.584-1.962 1.584-1.008 0-1.818-.432-2.412-1.314l-.666.54c.648 1.08 1.656 1.62 3.042 1.62.81 0 1.512-.216 2.07-.666.576-.45.864-1.044.864-1.8zm5.728 1.44c-.144.072-.486.18-.791.18-.523 0-.883-.234-1.044-.666-.145-.45-.18-.792-.18-1.35v-4.788h2.124v-.846h-2.106v-2.664h-.954v2.664h-1.26v.846h1.26v4.23c0 .738.017 1.278.053 1.62.036.342.126.63.252.9.325.594.847.9 1.585.9.54 0 .953-.09 1.26-.27l-.09-.81-.108.054zm9.766 0c-.145.072-.487.18-.793.18-.522 0-.882-.234-1.043-.666-.145-.45-.18-.792-.18-1.35v-4.788h2.124v-.846h-2.106v-2.664h-.954v2.664h-1.26v.846h1.26v4.23c0 .738.017 1.278.053 1.62.036.342.126.63.252.9.325.594.847.9 1.585.9.54 0 .954-.09 1.26-.27l-.09-.81-.108.054zm6.016 1.026c-1.206 0-2.214-.414-3.042-1.224-.81-.81-1.224-1.854-1.224-3.096s.414-2.286 1.224-3.114c.828-.828 1.836-1.242 3.042-1.242 1.206 0 2.232.414 3.042 1.242.828.828 1.242 1.872 1.242 3.114 0 1.242-.414 2.286-1.242 3.096-.81.81-1.836 1.224-3.042 1.224zm0-7.866c-.99 0-1.782.342-2.376 1.008-.594.666-.9 1.512-.9 2.502 0 .99.306 1.836.9 2.502.594.666 1.386 1.008 2.376 1.008s1.8-.342 2.394-1.008c.594-.666.9-1.512.9-2.502 0-.99-.306-1.836-.9-2.502-.594-.666-1.404-1.008-2.394-1.008zm14.301 6.84c-.144.072-.486.18-.792.18-.522 0-.882-.234-1.044-.666-.144-.45-.18-.792-.18-1.35v-4.788h2.124v-.846h-2.106v-2.664h-.954v2.664h-1.26v.846h1.26v4.23c0 .738.018 1.278.054 1.62.036.342.126.63.252.9.324.594.846.9 1.584.9.54 0 .954-.09 1.26-.27l-.09-.81-.108.054zm8.14-4.104V439h-.953v-1.17c-.774.9-1.71 1.35-2.826 1.35-.81 0-1.477-.234-1.999-.72s-.792-1.08-.792-1.8c0-1.494 1.153-2.43 3.33-2.52l2.287-.09v-.45c0-1.458-.972-2.286-2.34-2.286-.558 0-1.063.09-1.53.27-.45.162-.774.324-.936.45l-.36-.684a4.985 4.985 0 0 1 2.79-.846c1.097 0 1.925.306 2.52.936.54.594.81 1.476.81 2.61zm-.953 2.79v-2.07l-2.376.144c-1.53.09-2.304.666-2.304 1.746 0 .954.738 1.71 2.034 1.71 1.224 0 2.141-.738 2.645-1.53zm10.246-6.192h-1.17l-4.014 3.762v-7.83h-.936V439h.936v-3.546l1.134-1.044 3.42 4.59h1.17l-3.96-5.166 3.42-3.186zm9.112 3.762l-.054.63h-6.785c.09 2.016 1.224 3.294 3.095 3.294 1.135 0 2.196-.45 2.61-.81l.325-.27.45.666c-.054.072-.108.144-.522.432-.54.378-1.494.828-2.952.828-1.207 0-2.16-.396-2.899-1.206-.738-.81-1.097-1.872-1.097-3.15 0-1.26.395-2.286 1.17-3.096.791-.81 1.745-1.224 2.88-1.224 1.097 0 1.998.378 2.7 1.116.72.738 1.08 1.656 1.08 2.79zm-6.804-.18h5.85c0-1.098-.81-2.916-2.88-2.916-.935 0-1.655.306-2.16.936-.504.612-.774 1.278-.81 1.98zm19.27-.18V439h-.954v-1.17c-.774.9-1.71 1.35-2.827 1.35-.81 0-1.476-.234-1.998-.72s-.792-1.08-.792-1.8c0-1.494 1.153-2.43 3.33-2.52l2.287-.09v-.45c0-1.458-.972-2.286-2.34-2.286-.559 0-1.063.09-1.53.27-.45.162-.774.324-.936.45l-.36-.684a4.985 4.985 0 0 1 2.79-.846c1.097 0 1.925.306 2.52.936.54.594.81 1.476.81 2.61zm-.954 2.79v-2.07l-2.376.144c-1.53.09-2.304.666-2.304 1.746 0 .954.738 1.71 2.034 1.71 1.223 0 2.141-.738 2.645-1.53zm10.624-2.826c0-2.232-.72-3.51-2.952-3.51-1.206 0-2.286.684-2.7 1.692v-1.548h-.936V439h.936v-4.14c0-2.088.936-3.546 2.664-3.546.864 0 1.422.306 1.692.882.27.558.342 1.08.342 1.854V439h.954v-4.986zm8.433-6.876c-.288-.306-.792-.306-1.098 0-.288.288-.288.792 0 1.098.306.288.81.288 1.098 0 .306-.306.306-.81 0-1.098zm-1.008 3.51V439h.936v-8.352h-.936zm10.876 3.366c0-2.232-.72-3.51-2.952-3.51-1.206 0-2.286.684-2.7 1.692v-1.548h-.935V439h.936v-4.14c0-2.088.935-3.546 2.663-3.546.864 0 1.422.306 1.692.882.27.558.343 1.08.343 1.854V439h.953v-4.986zm2.201-.468v.9h3.942v-.9h-3.942zm9.707-3.042c1.332 0 2.375.576 3.131 1.71v-5.634h.954V439h-.954v-1.548c-.684 1.152-1.71 1.728-3.095 1.728-1.243 0-2.232-.414-3.006-1.224-.756-.828-1.135-1.872-1.135-3.132s.379-2.286 1.135-3.096 1.745-1.224 2.97-1.224zm.036 7.83c.99 0 1.745-.324 2.304-.99.558-.666.845-1.512.845-2.52s-.287-1.836-.845-2.502c-.559-.666-1.315-1.008-2.304-1.008-.972 0-1.746.342-2.304 1.008-.559.666-.846 1.494-.846 2.502 0 1.008.287 1.854.846 2.52.558.666 1.332.99 2.304.99zm14.602-3.924l-.054.63h-6.786c.09 2.016 1.224 3.294 3.096 3.294 1.134 0 2.196-.45 2.61-.81l.324-.27.45.666c-.054.072-.108.144-.522.432-.54.378-1.494.828-2.952.828-1.206 0-2.16-.396-2.898-1.206-.738-.81-1.098-1.872-1.098-3.15 0-1.26.396-2.286 1.17-3.096.792-.81 1.746-1.224 2.88-1.224 1.098 0 1.998.378 2.7 1.116.72.738 1.08 1.656 1.08 2.79zm-6.804-.18h5.85c0-1.098-.81-2.916-2.88-2.916-.936 0-1.656.306-2.16.936-.504.612-.774 1.278-.81 1.98zm13.523 4.95c-1.35 0-2.412-.576-3.15-1.746v4.986h-.936v-11.772h.935v1.62c.703-1.17 1.729-1.764 3.115-1.764 1.26 0 2.268.414 3.006 1.242.756.81 1.133 1.854 1.133 3.114 0 1.26-.377 2.304-1.133 3.114s-1.746 1.206-2.97 1.206zm-.036-7.866c-.99 0-1.764.342-2.322 1.008-.558.666-.828 1.512-.828 2.538 0 .99.27 1.818.828 2.484.558.666 1.332.99 2.322.99s1.745-.324 2.304-.972c.558-.666.846-1.494.846-2.502 0-1.008-.288-1.854-.846-2.52-.559-.684-1.333-1.026-2.304-1.026zm9.994 6.84c-.144.072-.486.18-.792.18-.522 0-.882-.234-1.044-.666-.144-.45-.18-.792-.18-1.35v-4.788h2.124v-.846h-2.106v-2.664h-.954v2.664h-1.26v.846h1.26v4.23c0 .738.018 1.278.054 1.62.036.342.126.63.252.9.324.594.846.9 1.584.9.54 0 .954-.09 1.26-.27l-.09-.81-.108.054zm9.058-4.14c0-2.232-.72-3.51-2.951-3.51-1.207 0-2.286.684-2.7 1.692v-5.616h-.936V439h.935v-4.14c0-2.088.936-3.546 2.665-3.546.864 0 1.422.306 1.692.882.27.558.341 1.08.341 1.854V439h.954v-4.986zm-79.186 31.036V470h-.954v-1.17c-.774.9-1.71 1.35-2.826 1.35-.81 0-1.476-.234-1.998-.72s-.792-1.08-.792-1.8c0-1.494 1.152-2.43 3.33-2.52l2.286-.09v-.45c0-1.458-.972-2.286-2.34-2.286-.558 0-1.062.09-1.53.27-.45.162-.774.324-.936.45l-.36-.684a4.985 4.985 0 0 1 2.79-.846c1.098 0 1.926.306 2.52.936.54.594.81 1.476.81 2.61zm-.954 2.79v-2.07l-2.376.144c-1.53.09-2.304.666-2.304 1.746 0 .954.738 1.71 2.034 1.71 1.224 0 2.142-.738 2.646-1.53zm9.113-.126c0-.738-.306-1.332-.954-1.71a5.194 5.194 0 0 0-.792-.432 8.601 8.601 0 0 0-.864-.342c-1.278-.45-1.926-.828-1.926-1.602 0-.846.648-1.332 1.601-1.332.81 0 1.512.324 2.089.954l.576-.576c-.684-.774-1.566-1.17-2.629-1.17-.666 0-1.26.198-1.781.594-.505.378-.756.936-.756 1.638 0 .702.323 1.278.9 1.638.576.36.827.468 1.386.666.018 0 .126.036.323.108l.433.162c.161.054.648.252.81.396.36.27.648.576.648 1.044 0 1.026-.828 1.584-1.963 1.584-1.007 0-1.817-.432-2.411-1.314l-.667.54c.649 1.08 1.656 1.62 3.042 1.62.81 0 1.512-.216 2.07-.666.577-.45.865-1.044.865-1.8zm7.402 0c0-.738-.306-1.332-.954-1.71a5.194 5.194 0 0 0-.792-.432 8.601 8.601 0 0 0-.864-.342c-1.278-.45-1.926-.828-1.926-1.602 0-.846.648-1.332 1.602-1.332.81 0 1.512.324 2.088.954l.576-.576c-.684-.774-1.566-1.17-2.628-1.17-.666 0-1.26.198-1.782.594-.504.378-.756.936-.756 1.638 0 .702.324 1.278.9 1.638.576.36.828.468 1.386.666.018 0 .126.036.324.108l.432.162c.162.054.648.252.81.396.36.27.648.576.648 1.044 0 1.026-.828 1.584-1.962 1.584-1.008 0-1.818-.432-2.412-1.314l-.666.54c.648 1.08 1.656 1.62 3.042 1.62.81 0 1.512-.216 2.07-.666.576-.45.864-1.044.864-1.8zm9.707-2.304l-.055.63h-6.786c.09 2.016 1.225 3.294 3.096 3.294 1.135 0 2.196-.45 2.61-.81l.325-.27.45.666c-.054.072-.108.144-.523.432-.54.378-1.494.828-2.952.828-1.206 0-2.16-.396-2.898-1.206-.738-.81-1.097-1.872-1.097-3.15 0-1.26.395-2.286 1.17-3.096.792-.81 1.746-1.224 2.88-1.224 1.097 0 1.998.378 2.7 1.116.72.738 1.08 1.656 1.08 2.79zm-6.805-.18h5.85c0-1.098-.81-2.916-2.88-2.916-.935 0-1.655.306-2.16.936-.504.612-.774 1.278-.81 1.98zm14.423 2.484c0-.738-.306-1.332-.954-1.71a5.194 5.194 0 0 0-.792-.432 8.601 8.601 0 0 0-.864-.342c-1.278-.45-1.926-.828-1.926-1.602 0-.846.648-1.332 1.602-1.332.81 0 1.512.324 2.088.954l.576-.576c-.684-.774-1.566-1.17-2.628-1.17-.666 0-1.26.198-1.782.594-.504.378-.756.936-.756 1.638 0 .702.324 1.278.9 1.638.576.36.828.468 1.386.666.018 0 .126.036.324.108l.432.162c.162.054.648.252.81.396.36.27.648.576.648 1.044 0 1.026-.828 1.584-1.962 1.584-1.008 0-1.818-.432-2.412-1.314l-.666.54c.648 1.08 1.656 1.62 3.042 1.62.81 0 1.512-.216 2.07-.666.576-.45.864-1.044.864-1.8zm7.403 0c0-.738-.306-1.332-.954-1.71a5.194 5.194 0 0 0-.792-.432 8.601 8.601 0 0 0-.864-.342c-1.279-.45-1.927-.828-1.927-1.602 0-.846.649-1.332 1.603-1.332.81 0 1.512.324 2.088.954l.576-.576c-.684-.774-1.566-1.17-2.628-1.17-.667 0-1.26.198-1.782.594-.504.378-.756.936-.756 1.638 0 .702.323 1.278.9 1.638.576.36.828.468 1.386.666.018 0 .126.036.323.108l.433.162c.162.054.648.252.81.396.36.27.648.576.648 1.044 0 1.026-.828 1.584-1.962 1.584-1.008 0-1.819-.432-2.412-1.314l-.666.54c.648 1.08 1.655 1.62 3.042 1.62.81 0 1.512-.216 2.07-.666.576-.45.864-1.044.864-1.8zm13.882-2.79c0-2.286-.936-3.42-2.79-3.42-1.098 0-2.088.666-2.646 1.746-.378-1.17-1.206-1.746-2.484-1.746-1.098 0-2.16.756-2.52 1.692v-1.548h-.936V470h.936v-4.356c0-.936.216-1.728.648-2.358.45-.648 1.062-.972 1.836-.972 1.206 0 1.8.864 1.8 2.61V470h.936v-4.356c0-.936.216-1.728.648-2.358.45-.648 1.062-.972 1.836-.972 1.206 0 1.8.864 1.8 2.61V470h.936v-5.076zm10.373.486l-.054.63h-6.786c.09 2.016 1.224 3.294 3.096 3.294 1.133 0 2.196-.45 2.61-.81l.323-.27.45.666c-.054.072-.108.144-.522.432-.54.378-1.494.828-2.952.828-1.206 0-2.16-.396-2.898-1.206-.737-.81-1.097-1.872-1.097-3.15 0-1.26.395-2.286 1.17-3.096.792-.81 1.745-1.224 2.88-1.224 1.097 0 1.998.378 2.7 1.116.72.738 1.08 1.656 1.08 2.79zm-6.804-.18h5.85c0-1.098-.81-2.916-2.88-2.916-.936 0-1.656.306-2.16.936-.505.612-.774 1.278-.81 1.98zm15.934-.216c0-2.232-.72-3.51-2.952-3.51-1.206 0-2.286.684-2.7 1.692v-1.548h-.936V470h.936v-4.14c0-2.088.936-3.546 2.664-3.546.864 0 1.422.306 1.692.882.27.558.342 1.08.342 1.854V470h.954v-4.986zm6.394 4.14c-.144.072-.486.18-.791.18-.523 0-.882-.234-1.044-.666-.144-.45-.18-.792-.18-1.35v-4.788h2.123v-.846h-2.106v-2.664h-.953v2.664h-1.26v.846h1.26v4.23c0 .738.018 1.278.053 1.62.036.342.126.63.252.9.325.594.846.9 1.584.9.54 0 .954-.09 1.26-.27l-.09-.81-.108.054z"/>
        <g fill="#4A4A4A" font-family="Gibson-Light, Gibson" font-weight="300">
            <text font-size="18" letter-spacing=".563" transform="translate(910 259)">
                <tspan x="4.676" y="14">Cost to attend in-patient recovery </tspan>
            </text>
            <text font-size="14" letter-spacing=".438" transform="translate(910 259)">
                <tspan x="3" y="57">* When covered by medical insurance</tspan>
            </text>
        </g>
        <text fill="#4A4A4A" font-family="Gibson-Light, Gibson" font-size="18" font-weight="300" letter-spacing=".563" transform="translate(887 96)">
            <tspan x="0" y="14">Cost of a personalized recovery </tspan> <tspan x="0" y="45">plan</tspan>
        </text>
        <path fill="#4A4A4A" d="M897.98 436.66c-.99 1.098-2.322 1.638-3.96 1.638-1.53 0-2.79-.522-3.762-1.548s-1.458-2.358-1.458-3.978.486-2.934 1.458-3.96c.972-1.026 2.232-1.53 3.762-1.53 1.674 0 3.168.756 3.87 1.638l.63-.72c-1.206-1.206-2.7-1.8-4.5-1.8-1.782 0-3.258.594-4.464 1.8-1.206 1.206-1.8 2.736-1.8 4.608 0 1.89.594 3.42 1.764 4.626 1.188 1.188 2.682 1.782 4.5 1.782 1.89 0 3.42-.648 4.59-1.926l-.63-.63zm6.718 2.52c-1.206 0-2.213-.414-3.041-1.224-.81-.81-1.225-1.854-1.225-3.096s.414-2.286 1.225-3.114c.827-.828 1.835-1.242 3.041-1.242 1.207 0 2.233.414 3.043 1.242.827.828 1.241 1.872 1.241 3.114 0 1.242-.413 2.286-1.241 3.096-.81.81-1.837 1.224-3.043 1.224zm0-7.866c-.99 0-1.781.342-2.375 1.008-.594.666-.9 1.512-.9 2.502 0 .99.306 1.836.9 2.502.594.666 1.385 1.008 2.375 1.008s1.8-.342 2.394-1.008c.595-.666.9-1.512.9-2.502 0-.99-.305-1.836-.9-2.502-.593-.666-1.404-1.008-2.394-1.008zm11.993 5.4c0-.738-.306-1.332-.954-1.71a5.194 5.194 0 0 0-.792-.432 8.601 8.601 0 0 0-.864-.342c-1.278-.45-1.926-.828-1.926-1.602 0-.846.648-1.332 1.602-1.332.81 0 1.512.324 2.088.954l.576-.576c-.684-.774-1.566-1.17-2.628-1.17-.666 0-1.26.198-1.782.594-.504.378-.756.936-.756 1.638 0 .702.324 1.278.9 1.638.576.36.828.468 1.386.666.018 0 .126.036.324.108l.432.162c.162.054.648.252.81.396.36.27.648.576.648 1.044 0 1.026-.828 1.584-1.962 1.584-1.008 0-1.818-.432-2.412-1.314l-.666.54c.648 1.08 1.656 1.62 3.042 1.62.81 0 1.512-.216 2.07-.666.576-.45.864-1.044.864-1.8zm5.728 1.44c-.144.072-.486.18-.791.18-.523 0-.883-.234-1.045-.666-.144-.45-.18-.792-.18-1.35v-4.788h2.125v-.846h-2.106v-2.664h-.955v2.664h-1.26v.846h1.26v4.23c0 .738.019 1.278.054 1.62.037.342.127.63.253.9.323.594.846.9 1.583.9.54 0 .955-.09 1.26-.27l-.09-.81-.108.054zm9.765 0c-.144.072-.486.18-.791.18-.523 0-.883-.234-1.045-.666-.143-.45-.18-.792-.18-1.35v-4.788h2.125v-.846h-2.106v-2.664h-.955v2.664h-1.26v.846h1.26v4.23c0 .738.019 1.278.055 1.62.035.342.125.63.251.9.324.594.846.9 1.584.9.54 0 .955-.09 1.26-.27l-.09-.81-.108.054zm6.017 1.026c-1.206 0-2.214-.414-3.042-1.224-.81-.81-1.224-1.854-1.224-3.096s.414-2.286 1.224-3.114c.828-.828 1.836-1.242 3.042-1.242 1.206 0 2.232.414 3.042 1.242.828.828 1.242 1.872 1.242 3.114 0 1.242-.414 2.286-1.242 3.096-.81.81-1.836 1.224-3.042 1.224zm0-7.866c-.99 0-1.782.342-2.376 1.008-.594.666-.9 1.512-.9 2.502 0 .99.306 1.836.9 2.502.594.666 1.386 1.008 2.376 1.008s1.8-.342 2.394-1.008c.594-.666.9-1.512.9-2.502 0-.99-.306-1.836-.9-2.502-.594-.666-1.404-1.008-2.394-1.008zm16.155 5.4c0-.738-.306-1.332-.954-1.71a5.194 5.194 0 0 0-.792-.432 8.601 8.601 0 0 0-.864-.342c-1.278-.45-1.926-.828-1.926-1.602 0-.846.648-1.332 1.602-1.332.81 0 1.512.324 2.088.954l.576-.576c-.684-.774-1.566-1.17-2.628-1.17-.666 0-1.26.198-1.782.594-.504.378-.756.936-.756 1.638 0 .702.324 1.278.9 1.638.576.36.828.468 1.386.666.018 0 .126.036.324.108l.432.162c.162.054.648.252.81.396.36.27.648.576.648 1.044 0 1.026-.828 1.584-1.962 1.584-1.008 0-1.818-.432-2.412-1.314l-.666.54c.648 1.08 1.656 1.62 3.042 1.62.81 0 1.512-.216 2.07-.666.576-.45.864-1.044.864-1.8zm5.729 1.44c-.144.072-.487.18-.793.18-.522 0-.882-.234-1.043-.666-.144-.45-.18-.792-.18-1.35v-4.788h2.124v-.846h-2.106v-2.664h-.954v2.664h-1.26v.846h1.26v4.23c0 .738.017 1.278.053 1.62.036.342.126.63.252.9.325.594.846.9 1.585.9.54 0 .953-.09 1.26-.27l-.09-.81-.108.054zm8.14-4.104V439h-.954v-1.17c-.774.9-1.71 1.35-2.826 1.35-.81 0-1.476-.234-1.998-.72s-.792-1.08-.792-1.8c0-1.494 1.152-2.43 3.33-2.52l2.286-.09v-.45c0-1.458-.972-2.286-2.34-2.286-.558 0-1.062.09-1.53.27-.45.162-.774.324-.936.45l-.36-.684a4.985 4.985 0 0 1 2.79-.846c1.098 0 1.926.306 2.52.936.54.594.81 1.476.81 2.61zm-.954 2.79v-2.07l-2.376.144c-1.53.09-2.304.666-2.304 1.746 0 .954.738 1.71 2.034 1.71 1.224 0 2.142-.738 2.646-1.53zm6.647 1.08l-2.88-7.272h-.99l3.365 8.226-.486 1.386c-.36 1.062-.683 1.314-1.241 1.314-.343 0-.613-.054-.829-.18l-.18.9.126.054c.163.072.54.162.883.162.81 0 1.44-.522 1.871-1.566l4.23-10.296h-.99l-2.88 7.272zm15.02-1.206c0-.738-.305-1.332-.953-1.71a5.194 5.194 0 0 0-.793-.432 8.601 8.601 0 0 0-.864-.342c-1.277-.45-1.925-.828-1.925-1.602 0-.846.648-1.332 1.601-1.332.81 0 1.512.324 2.088.954l.577-.576c-.684-.774-1.567-1.17-2.629-1.17-.665 0-1.26.198-1.781.594-.505.378-.756.936-.756 1.638 0 .702.323 1.278.9 1.638.576.36.827.468 1.385.666.019 0 .126.036.324.108l.433.162c.162.054.648.252.81.396.36.27.648.576.648 1.044 0 1.026-.829 1.584-1.963 1.584-1.007 0-1.817-.432-2.411-1.314l-.667.54c.649 1.08 1.657 1.62 3.043 1.62.81 0 1.511-.216 2.07-.666.575-.45.863-1.044.863-1.8zm6.143 2.466c-1.206 0-2.214-.414-3.042-1.224-.81-.81-1.224-1.854-1.224-3.096s.414-2.286 1.224-3.114c.828-.828 1.836-1.242 3.042-1.242 1.206 0 2.232.414 3.042 1.242.828.828 1.242 1.872 1.242 3.114 0 1.242-.414 2.286-1.242 3.096-.81.81-1.836 1.224-3.042 1.224zm0-7.866c-.99 0-1.782.342-2.376 1.008-.594.666-.9 1.512-.9 2.502 0 .99.306 1.836.9 2.502.594.666 1.386 1.008 2.376 1.008s1.8-.342 2.394-1.008c.594-.666.9-1.512.9-2.502 0-.99-.306-1.836-.9-2.502-.594-.666-1.404-1.008-2.394-1.008zm11.057 7.866c-1.404 0-2.449-.594-3.115-1.764V439h-.936v-12.42h.937v5.67c.737-1.17 1.8-1.746 3.15-1.746 1.224 0 2.214.414 2.97 1.224.755.81 1.134 1.836 1.134 3.096s-.379 2.304-1.153 3.132c-.755.81-1.745 1.224-2.987 1.224zm0-7.866c-.99 0-1.764.342-2.322 1.008-.558.666-.829 1.494-.829 2.502 0 1.008.27 1.854.829 2.52.558.666 1.332.99 2.322.99.971 0 1.745-.324 2.303-.99.558-.666.846-1.512.846-2.52s-.288-1.836-.846-2.502c-.558-.666-1.332-1.008-2.303-1.008zm13.972 3.096l-.054.63h-6.786c.09 2.016 1.224 3.294 3.096 3.294 1.134 0 2.196-.45 2.61-.81l.324-.27.45.666c-.054.072-.108.144-.522.432-.54.378-1.494.828-2.952.828-1.206 0-2.16-.396-2.898-1.206-.738-.81-1.098-1.872-1.098-3.15 0-1.26.396-2.286 1.17-3.096.792-.81 1.746-1.224 2.88-1.224 1.098 0 1.998.378 2.7 1.116.72.738 1.08 1.656 1.08 2.79zm-6.804-.18h5.85c0-1.098-.81-2.916-2.88-2.916-.936 0-1.656.306-2.16.936-.504.612-.774 1.278-.81 1.98zm13.198-3.618c-.143-.054-.486-.108-.791-.108-.955 0-1.837.63-2.125 1.71v-1.566h-.935V439h.935v-4.5c0-1.026.199-1.8.594-2.34.379-.504.846-.756 1.44-.756.342 0 .63.054.9.144l.09-.918-.108-.018zm12.034 3.438V439h-.955v-1.17c-.774.9-1.71 1.35-2.826 1.35-.81 0-1.476-.234-1.998-.72s-.792-1.08-.792-1.8c0-1.494 1.152-2.43 3.33-2.52l2.286-.09v-.45c0-1.458-.972-2.286-2.34-2.286-.557 0-1.062.09-1.53.27-.45.162-.774.324-.936.45l-.36-.684a4.985 4.985 0 0 1 2.79-.846c1.098 0 1.926.306 2.52.936.54.594.81 1.476.81 2.61zm-.955 2.79v-2.07l-2.376.144c-1.53.09-2.304.666-2.304 1.746 0 .954.738 1.71 2.034 1.71 1.225 0 2.143-.738 2.647-1.53zm11.579 1.314c-.144.072-.486.18-.792.18-.522 0-.882-.234-1.044-.666-.144-.45-.18-.792-.18-1.35v-4.788h2.124v-.846h-2.106v-2.664h-.954v2.664h-3.384v-1.224c-.036-1.296.18-2.142 1.494-2.25.306 0 .594.054.9.18l.09-.81-.09-.036c-.126-.072-.558-.144-1.08-.144-.756 0-1.35.324-1.764.954-.324.486-.486 1.206-.486 2.196v1.134h-1.26v.846h1.26V439h.936v-7.47h3.384v4.23c0 .738.018 1.278.054 1.62.036.342.126.63.252.9.324.594.846.9 1.584.9.54 0 .954-.09 1.26-.27l-.09-.81-.108.054zm9.4-3.744l-.053.63h-6.786c.09 2.016 1.224 3.294 3.096 3.294 1.134 0 2.196-.45 2.61-.81l.323-.27.45.666c-.053.072-.108.144-.522.432-.54.378-1.494.828-2.952.828-1.206 0-2.16-.396-2.898-1.206-.737-.81-1.097-1.872-1.097-3.15 0-1.26.396-2.286 1.17-3.096.792-.81 1.745-1.224 2.88-1.224 1.098 0 1.998.378 2.7 1.116.72.738 1.08 1.656 1.08 2.79zm-6.803-.18h5.85c0-1.098-.81-2.916-2.88-2.916-.937 0-1.657.306-2.16.936-.505.612-.774 1.278-.81 1.98zm13.198-3.618c-.144-.054-.486-.108-.792-.108-.954 0-1.836.63-2.124 1.71v-1.566h-.936V439h.936v-4.5c0-1.026.198-1.8.594-2.34.378-.504.846-.756 1.44-.756.342 0 .63.054.9.144l.09-.918-.108-.018zm12.033 3.438V439h-.954v-1.17c-.774.9-1.71 1.35-2.826 1.35-.81 0-1.476-.234-1.998-.72s-.792-1.08-.792-1.8c0-1.494 1.152-2.43 3.33-2.52l2.286-.09v-.45c0-1.458-.972-2.286-2.34-2.286-.558 0-1.062.09-1.53.27-.45.162-.774.324-.936.45l-.36-.684a4.985 4.985 0 0 1 2.79-.846c1.098 0 1.926.306 2.52.936.54.594.81 1.476.81 2.61zm-.954 2.79v-2.07l-2.376.144c-1.53.09-2.304.666-2.304 1.746 0 .954.738 1.71 2.034 1.71 1.224 0 2.142-.738 2.646-1.53zm7.51-6.336c1.332 0 2.376.576 3.132 1.71v-5.634h.954V439h-.954v-1.548c-.684 1.152-1.71 1.728-3.096 1.728-1.242 0-2.232-.414-3.006-1.224-.755-.828-1.133-1.872-1.133-3.132s.378-2.286 1.133-3.096c.756-.81 1.746-1.224 2.97-1.224zm.036 7.83c.99 0 1.746-.324 2.304-.99.559-.666.847-1.512.847-2.52s-.288-1.836-.846-2.502c-.558-.666-1.314-1.008-2.304-1.008-.973 0-1.747.342-2.305 1.008-.558.666-.846 1.494-.846 2.502 0 1.008.288 1.854.846 2.52.558.666 1.332.99 2.304.99zm10.877-7.83c1.332 0 2.376.576 3.132 1.71v-5.634h.954V439h-.954v-1.548c-.684 1.152-1.71 1.728-3.096 1.728-1.242 0-2.232-.414-3.006-1.224-.756-.828-1.134-1.872-1.134-3.132s.378-2.286 1.134-3.096c.756-.81 1.746-1.224 2.97-1.224zm.036 7.83c.99 0 1.746-.324 2.304-.99.558-.666.846-1.512.846-2.52s-.288-1.836-.846-2.502c-.558-.666-1.314-1.008-2.304-1.008-.972 0-1.746.342-2.304 1.008-.558.666-.846 1.494-.846 2.502 0 1.008.288 1.854.846 2.52.558.666 1.332.99 2.304.99zm8.5-11.196c-.287-.306-.791-.306-1.097 0-.288.288-.288.792 0 1.098.306.288.81.288 1.098 0 .305-.306.305-.81 0-1.098zm-1.007 3.51V439h.936v-8.352h-.937zm10.354 6.768c-.378.414-1.386.918-2.52.918-.936 0-1.71-.324-2.304-.99-.594-.666-.882-1.53-.882-2.574 0-1.008.306-1.836.918-2.466.63-.63 1.368-.954 2.232-.954 1.116 0 2.034.414 2.736 1.224l.594-.63c-.738-.954-1.836-1.44-3.294-1.44-1.134 0-2.106.414-2.934 1.224-.828.81-1.242 1.854-1.242 3.096 0 1.26.396 2.304 1.188 3.132.792.81 1.764 1.224 2.898 1.224 1.458 0 2.61-.486 3.42-1.44l-.54-.63-.27.306zm6.178.738c-.143.072-.486.18-.792.18-.522 0-.881-.234-1.043-.666-.144-.45-.18-.792-.18-1.35v-4.788h2.123v-.846h-2.105v-2.664h-.954v2.664h-1.26v.846h1.26v4.23c0 .738.017 1.278.053 1.62.036.342.126.63.252.9.324.594.846.9 1.584.9.54 0 .954-.09 1.26-.27l-.09-.81-.107.054zm3.479-11.016c-.288-.306-.792-.306-1.098 0-.288.288-.288.792 0 1.098.306.288.81.288 1.098 0 .306-.306.306-.81 0-1.098zm-1.008 3.51V439h.936v-8.352h-.936zm7.925 8.532c-1.207 0-2.215-.414-3.043-1.224-.81-.81-1.224-1.854-1.224-3.096s.415-2.286 1.225-3.114c.827-.828 1.835-1.242 3.042-1.242 1.206 0 2.232.414 3.042 1.242.827.828 1.241 1.872 1.241 3.114 0 1.242-.414 2.286-1.242 3.096-.81.81-1.836 1.224-3.042 1.224zm0-7.866c-.99 0-1.783.342-2.376 1.008-.594.666-.9 1.512-.9 2.502 0 .99.305 1.836.9 2.502.593.666 1.386 1.008 2.376 1.008s1.8-.342 2.394-1.008c.593-.666.9-1.512.9-2.502 0-.99-.307-1.836-.9-2.502-.594-.666-1.404-1.008-2.394-1.008zm13.504 2.7c0-2.232-.72-3.51-2.952-3.51-1.206 0-2.286.684-2.7 1.692v-1.548h-.936V439h.936v-4.14c0-2.088.936-3.546 2.664-3.546.864 0 1.422.306 1.692.882.27.558.342 1.08.342 1.854V439h.954v-4.986zm-250.218 27.598c-.144-.054-.486-.108-.792-.108-.954 0-1.836.63-2.124 1.71v-1.566h-.936V470h.936v-4.5c0-1.026.198-1.8.594-2.34.378-.504.846-.756 1.44-.756.342 0 .63.054.9.144l.09-.918-.108-.018zm9.04 3.798l-.053.63h-6.786c.09 2.016 1.223 3.294 3.096 3.294 1.134 0 2.195-.45 2.61-.81l.323-.27.45.666c-.053.072-.107.144-.521.432-.54.378-1.495.828-2.952.828-1.207 0-2.16-.396-2.899-1.206-.737-.81-1.097-1.872-1.097-3.15 0-1.26.395-2.286 1.17-3.096.792-.81 1.745-1.224 2.88-1.224 1.098 0 1.998.378 2.7 1.116.72.738 1.08 1.656 1.08 2.79zm-6.803-.18h5.85c0-1.098-.81-2.916-2.88-2.916-.937 0-1.656.306-2.16.936-.505.612-.774 1.278-.81 1.98zm16.024-.216c0-2.232-.72-3.51-2.952-3.51-1.206 0-2.286.684-2.7 1.692v-5.616h-.936V470h.936v-4.14c0-2.088.936-3.546 2.664-3.546.864 0 1.422.306 1.692.882.27.558.342 1.08.342 1.854V470h.954v-4.986zm9.023.036V470h-.954v-1.17c-.774.9-1.71 1.35-2.827 1.35-.81 0-1.476-.234-1.998-.72-.521-.486-.792-1.08-.792-1.8 0-1.494 1.153-2.43 3.33-2.52l2.287-.09v-.45c0-1.458-.973-2.286-2.34-2.286-.558 0-1.063.09-1.53.27-.45.162-.774.324-.937.45l-.36-.684a4.985 4.985 0 0 1 2.79-.846c1.099 0 1.927.306 2.52.936.54.594.81 1.476.81 2.61zm-.954 2.79v-2.07l-2.377.144c-1.53.09-2.303.666-2.303 1.746 0 .954.738 1.71 2.034 1.71 1.224 0 2.142-.738 2.646-1.53zm8.176 2.34c-1.404 0-2.448-.594-3.114-1.764V470h-.936v-12.42h.936v5.67c.738-1.17 1.8-1.746 3.15-1.746 1.224 0 2.214.414 2.97 1.224.756.81 1.134 1.836 1.134 3.096s-.378 2.304-1.152 3.132c-.756.81-1.746 1.224-2.988 1.224zm0-7.866c-.99 0-1.764.342-2.322 1.008-.558.666-.828 1.494-.828 2.502 0 1.008.27 1.854.828 2.52.558.666 1.332.99 2.322.99.972 0 1.746-.324 2.304-.99.558-.666.846-1.512.846-2.52s-.288-1.836-.846-2.502c-.558-.666-1.332-1.008-2.304-1.008zm17.001 6.102c-.378.414-1.386.918-2.52.918-.936 0-1.71-.324-2.304-.99-.594-.666-.882-1.53-.882-2.574 0-1.008.306-1.836.918-2.466.63-.63 1.368-.954 2.232-.954 1.116 0 2.034.414 2.736 1.224l.594-.63c-.738-.954-1.836-1.44-3.294-1.44-1.134 0-2.106.414-2.934 1.224-.828.81-1.242 1.854-1.242 3.096 0 1.26.396 2.304 1.188 3.132.792.81 1.764 1.224 2.898 1.224 1.458 0 2.61-.486 3.42-1.44l-.54-.63-.27.306zm10.157-3.006l-.054.63h-6.787c.09 2.016 1.225 3.294 3.096 3.294 1.135 0 2.197-.45 2.61-.81l.325-.27.45.666c-.054.072-.108.144-.522.432-.54.378-1.495.828-2.952.828-1.207 0-2.16-.396-2.899-1.206-.738-.81-1.098-1.872-1.098-3.15 0-1.26.397-2.286 1.17-3.096.792-.81 1.746-1.224 2.88-1.224 1.098 0 1.998.378 2.7 1.116.72.738 1.08 1.656 1.08 2.79zm-6.804-.18h5.85c0-1.098-.81-2.916-2.88-2.916-.937 0-1.657.306-2.16.936-.505.612-.774 1.278-.81 1.98zm15.934-.216c0-2.232-.72-3.51-2.952-3.51-1.206 0-2.286.684-2.7 1.692v-1.548h-.936V470h.936v-4.14c0-2.088.936-3.546 2.664-3.546.864 0 1.422.306 1.692.882.27.558.342 1.08.342 1.854V470h.954v-4.986zm6.394 4.14c-.144.072-.486.18-.792.18-.521 0-.881-.234-1.043-.666-.144-.45-.18-.792-.18-1.35v-4.788h2.124v-.846h-2.106v-2.664h-.955v2.664h-1.26v.846h1.26v4.23c0 .738.019 1.278.054 1.62.037.342.127.63.253.9.323.594.846.9 1.583.9.54 0 .955-.09 1.26-.27l-.09-.81-.108.054zm9.401-3.744l-.054.63h-6.786c.09 2.016 1.224 3.294 3.096 3.294 1.134 0 2.196-.45 2.61-.81l.324-.27.45.666c-.054.072-.108.144-.522.432-.54.378-1.494.828-2.952.828-1.206 0-2.16-.396-2.898-1.206-.738-.81-1.098-1.872-1.098-3.15 0-1.26.396-2.286 1.17-3.096.792-.81 1.746-1.224 2.88-1.224 1.098 0 1.998.378 2.7 1.116.72.738 1.08 1.656 1.08 2.79zm-6.804-.18h5.85c0-1.098-.81-2.916-2.88-2.916-.936 0-1.656.306-2.16.936-.504.612-.774 1.278-.81 1.98zm13.199-3.618c-.144-.054-.487-.108-.793-.108-.954 0-1.836.63-2.124 1.71v-1.566h-.936V470h.937v-4.5c0-1.026.197-1.8.594-2.34.377-.504.846-.756 1.44-.756.341 0 .63.054.9.144l.09-.918-.108-.018zm9.495 7.542c-.144.072-.487.18-.793.18-.522 0-.882-.234-1.043-.666-.144-.45-.18-.792-.18-1.35v-4.788h2.124v-.846h-2.106v-2.664h-.954v2.664h-1.26v.846h1.26v4.23c0 .738.017 1.278.053 1.62.036.342.126.63.252.9.325.594.846.9 1.585.9.54 0 .953-.09 1.26-.27l-.09-.81-.108.054zm6.232-7.542c-.144-.054-.486-.108-.792-.108-.954 0-1.836.63-2.124 1.71v-1.566h-.936V470h.936v-4.5c0-1.026.198-1.8.594-2.34.378-.504.846-.756 1.44-.756.342 0 .63.054.9.144l.09-.918-.108-.018zm9.04 3.798l-.053.63h-6.786c.09 2.016 1.223 3.294 3.096 3.294 1.133 0 2.195-.45 2.61-.81l.323-.27.45.666c-.053.072-.107.144-.521.432-.54.378-1.495.828-2.952.828-1.207 0-2.16-.396-2.899-1.206-.737-.81-1.097-1.872-1.097-3.15 0-1.26.395-2.286 1.17-3.096.792-.81 1.745-1.224 2.88-1.224 1.097 0 1.998.378 2.7 1.116.72.738 1.08 1.656 1.08 2.79zm-6.803-.18h5.85c0-1.098-.81-2.916-2.88-2.916-.937 0-1.657.306-2.16.936-.505.612-.774 1.278-.81 1.98zm15.106-.18V470h-.954v-1.17c-.774.9-1.71 1.35-2.826 1.35-.81 0-1.476-.234-1.998-.72s-.792-1.08-.792-1.8c0-1.494 1.152-2.43 3.33-2.52l2.286-.09v-.45c0-1.458-.972-2.286-2.34-2.286-.558 0-1.062.09-1.53.27-.45.162-.774.324-.936.45l-.36-.684a4.985 4.985 0 0 1 2.79-.846c1.098 0 1.926.306 2.52.936.54.594.81 1.476.81 2.61zm-.954 2.79v-2.07l-2.376.144c-1.53.09-2.304.666-2.304 1.746 0 .954.738 1.71 2.034 1.71 1.224 0 2.142-.738 2.646-1.53zm7.259 1.314c-.144.072-.486.18-.792.18-.523 0-.883-.234-1.044-.666-.144-.45-.18-.792-.18-1.35v-4.788h2.124v-.846h-2.107v-2.664h-.953v2.664h-1.26v.846h1.26v4.23c0 .738.017 1.278.053 1.62.036.342.126.63.252.9.325.594.846.9 1.585.9.54 0 .954-.09 1.26-.27l-.09-.81-.109.054zm13.756-4.23c0-2.286-.936-3.42-2.79-3.42-1.098 0-2.088.666-2.646 1.746-.378-1.17-1.206-1.746-2.484-1.746-1.098 0-2.16.756-2.52 1.692v-1.548h-.936V470h.936v-4.356c0-.936.216-1.728.648-2.358.45-.648 1.062-.972 1.836-.972 1.206 0 1.8.864 1.8 2.61V470h.936v-4.356c0-.936.216-1.728.648-2.358.45-.648 1.062-.972 1.836-.972 1.206 0 1.8.864 1.8 2.61V470h.936v-5.076zm10.372.486l-.053.63h-6.786c.09 2.016 1.224 3.294 3.096 3.294 1.134 0 2.196-.45 2.61-.81l.323-.27.45.666c-.053.072-.107.144-.522.432-.54.378-1.494.828-2.952.828-1.206 0-2.16-.396-2.898-1.206-.738-.81-1.098-1.872-1.098-3.15 0-1.26.397-2.286 1.17-3.096.793-.81 1.746-1.224 2.88-1.224 1.098 0 1.998.378 2.7 1.116.72.738 1.08 1.656 1.08 2.79zm-6.803-.18h5.85c0-1.098-.81-2.916-2.88-2.916-.937 0-1.657.306-2.16.936-.505.612-.774 1.278-.81 1.98zm15.934-.216c0-2.232-.72-3.51-2.952-3.51-1.206 0-2.286.684-2.7 1.692v-1.548h-.936V470h.936v-4.14c0-2.088.936-3.546 2.664-3.546.864 0 1.422.306 1.692.882.27.558.342 1.08.342 1.854V470h.954v-4.986zm6.395 4.14c-.144.072-.486.18-.793.18-.522 0-.881-.234-1.043-.666-.144-.45-.18-.792-.18-1.35v-4.788h2.123v-.846h-2.105v-2.664h-.955v2.664h-1.26v.846h1.26v4.23c0 .738.019 1.278.054 1.62.036.342.127.63.253.9.323.594.846.9 1.583.9.54 0 .955-.09 1.26-.27l-.09-.81-.107.054z"/>
        <g opacity=".912" transform="translate(259 13)">
            <circle cx="314" cy="263" r="263" stroke="#2B4765" stroke-linecap="square" stroke-width="25" opacity=".05"/>
            <circle cx="314" cy="263" r="217" stroke="#2B4765" stroke-linecap="square" stroke-width="25" opacity=".1"/>
            <circle cx="313" cy="262" r="181" fill="#2B4765"/>
            <path fill="#16D3BF" d="M315.36 369.576c-60.494 0-80.162-49.468-80.162-110.558s19.668-109.664 80.162-109.664c60.494 0 80.162 48.574 80.162 109.664s-19.668 110.558-80.162 110.558zm0-47.68c20.562 0 26.522-28.012 26.522-62.878 0-34.568-5.96-61.984-26.522-61.984-20.562 0-26.522 27.416-26.522 61.984 0 34.866 5.96 62.878 26.522 62.878z"/>
            <g transform="matrix(-1 0 0 1 583 101)">
                <path stroke="#2B4765" stroke-linecap="square" stroke-width="5" d="M19.5 13.5l107.925 33.562"/>
                <circle cx="9.5" cy="9.5" r="9.5" fill="#2B4765"/>
            </g>
            <g transform="scale(-1 1) rotate(-17 554.093 2220.604)">
                <path stroke="#2B4765" stroke-linecap="square" stroke-width="5" d="M20.5 13.5l111.75 34.732"/>
                <circle cx="10.413" cy="10.085" r="9.5" fill="#2B4765"/>
            </g>
            <g transform="rotate(180 292 212.5)">
                <path stroke="#2B4765" stroke-linecap="square" stroke-width="5" d="M19.5 13.5l114.434 36.594"/>
                <circle cx="9.5" cy="9.5" r="9.5" fill="#2B4765"/>
            </g>
            <g transform="translate(44 101)">
                <path stroke="#2B4765" stroke-linecap="square" stroke-width="5" d="M19.5 13.5l107.925 33.562"/>
                <circle cx="9.5" cy="9.5" r="9.5" fill="#2B4765"/>
            </g>
            <g transform="rotate(-17 867.093 126.272)">
                <path stroke="#2B4765" stroke-linecap="square" stroke-width="5" d="M20.5 13.5l111.75 34.732"/>
                <circle cx="10.413" cy="10.085" r="9.5" fill="#2B4765"/>
            </g>
            <g transform="matrix(1 0 0 -1 44 425)">
                <path stroke="#2B4765" stroke-linecap="square" stroke-width="5" d="M19.5 13.5l107.925 33.562"/>
                <circle cx="9.5" cy="9.5" r="9.5" fill="#2B4765"/>
            </g>
            <path fill="#16D3BF" d="M227.15 192.75c0 3.1-1.3 5.65-3.85 7.7-1.65 1.35-4.5 2.35-6.5 2.5l-.1 2.75h-3.6l.1-2.65c-3.85-.15-7.95-2.05-10.35-5.1l3.7-5c.7 1.1 1.8 2.05 3.25 2.85 1.5.8 2.8 1.2 3.95 1.25l.15-8.35-1.7-.7c-2.05-.85-3.55-1.7-4.5-2.45-2.35-1.8-3.5-4.2-3.5-7.15s1.1-5.35 3.3-7.25c1.65-1.45 3.95-2.35 7-2.6l.1-2.7h3.6l-.05 2.8c3.15.25 6.45 1.7 8.4 4.05l-3.1 4.95c-1.75-1.95-3.7-3.05-5.85-3.35l-.2 8 3.15 1.35c4.4 1.95 6.6 5 6.6 9.1zm-13.4-11.8l.55.25.15-6.95c-1.95.15-3.25 1.4-3.25 3.35 0 1.45.85 2.55 2.55 3.35zm6.5 12.75c0-1.6-.8-2.8-2.4-3.6l-.8-.4-.15 7.45c1.65-.15 3.35-1.6 3.35-3.45z"/>
        </g>
    </g>
</svg>
