<svg xmlns="http://www.w3.org/2000/svg" width="61" height="64" viewBox="0 0 61 64">
    <path fill="#16D3BF" fill-rule="nonzero" d="M40.513 49.61c0 .828-.675 1.499-1.508 1.499h-1.838c-.833 0-1.508-.671-1.508-1.5 0-.827.675-1.498 1.508-1.498h1.838c.833 0 1.508.671 1.508 1.499zm-19.618-1H5.74V29.859l.16.155c.581.593 1.54.604 2.135.026.597-.578.61-1.527.028-2.12l-2.719-2.77c-.015-.015-.057-.03-.073-.046-.002-.002-.033-.004-.033-.006v.018l.052.016-.003-.022c-.145-.137-.31-.273-.486-.342-.159-.062-.33-.136-.51-.136h-.058v.023s-.028.012-.04.013c-.129.005-.257.031-.376.067a1.514 1.514 0 0 0-.67.414l-2.72 2.77a1.493 1.493 0 0 0 .027 2.12 1.507 1.507 0 0 0 2.125-.025l.145-.155v20.2c0 .012.007.025.007.038 0 .528.279.993.695 1.26.235.15.518.245.819.245.01 0 .022.007.032.007h16.617c.833 0 1.508-.67 1.508-1.499 0-.827-.675-1.498-1.508-1.498zm.184-31.972h1.837c.833 0 1.508-.67 1.508-1.499 0-.827-.675-1.498-1.508-1.498h-1.837c-.833 0-1.508.67-1.508 1.498s.675 1.5 1.508 1.5zm-4.793-1.499c0-.827-.675-1.498-1.508-1.498h-1.837c-.833 0-1.508.67-1.508 1.498s.675 1.5 1.508 1.5h1.837c.833 0 1.508-.672 1.508-1.5zM4.927 18.734c.437.072.917-.05 1.255-.335.338-.285.565-.703.565-1.143V14.11c0-6.128 4.994-11.114 11.16-11.114.381 0 .746.02 1.117.057-1.554 2.497-3.87 4.304-6.483 5.03a1.5 1.5 0 0 0-1.05 1.847 1.508 1.508 0 0 0 1.858 1.04c3.63-1.01 6.782-3.61 8.712-7.17 4.104 1.647 7.008 5.648 7.008 10.31 0 4.788-3.049 9.01-7.526 10.54-.503-.447-1.167-.686-1.893-.686h-3.53a2.842 2.842 0 0 0-2.844 2.831 2.842 2.842 0 0 0 2.843 2.83h3.53c1.298 0 2.396-.906 2.736-2.088a14.112 14.112 0 0 0 8.931-8.867c1.898-.434 3.08-1.594 3.08-3v-3.642c0-1.459-1.273-2.631-3.294-3.026A14.21 14.21 0 0 0 17.874 0 14.24 14.24 0 0 0 4.616 9.022c-1.966.413-3.231 1.572-3.231 3.007v3.642c0 1.508 1.401 2.71 3.542 3.063zM60.545 32.23a1.558 1.558 0 0 0-2.168.026l-.186.155V12.2c0-.009.035-.018.035-.027 0-.345-.1-.678-.296-.931a1.526 1.526 0 0 0-1.209-.6H40.105c-.833 0-1.508.671-1.508 1.5 0 .827.675 1.498 1.508 1.498h15.07v18.77l-.118-.155a1.493 1.493 0 1 0-2.132 2.094l2.724 2.77c.015.016.032.031.048.046.166.161.36.276.566.346h.003a1.513 1.513 0 0 0 1.585-.391l2.72-2.771a1.492 1.492 0 0 0-.026-2.12zm-2.282 16.156l-.214 2.541a1.507 1.507 0 0 1-1.935 1.31C54.985 58.906 49.135 64 42.111 64c-7.025 0-12.875-5.095-14.004-11.762a1.506 1.506 0 0 1-1.935-1.31l-.214-2.542a1.502 1.502 0 0 1 1.376-1.62c.32-.026.625.049.883.198 1.36-6.383 7.073-11.187 13.894-11.187 3.678 0 7.034 1.397 9.56 3.685a1.526 1.526 0 0 1 .2.186 14.084 14.084 0 0 1 4.133 7.316c.258-.15.564-.224.883-.197.83.069 1.446.794 1.376 1.619zm-4.968 1.502c0-2.74-1.003-5.25-2.663-7.19a14.205 14.205 0 0 1-8.521 2.823c-1.27 0-2.532-.167-3.75-.497a1.498 1.498 0 0 1-1.057-1.84 1.509 1.509 0 0 1 1.852-1.052c.958.26 1.953.392 2.955.392 2.233 0 4.385-.656 6.213-1.872a11.169 11.169 0 0 0-6.213-1.877c-6.167 0-11.184 4.985-11.184 11.114 0 6.128 5.017 11.114 11.184 11.114 6.166 0 11.184-4.986 11.184-11.115zM42.57 54.606h-.918c-.833 0-1.509.67-1.509 1.498s.676 1.499 1.509 1.499h.918c.833 0 1.508-.67 1.508-1.499 0-.828-.675-1.498-1.508-1.498zm4.572-6.495h-1.837c-.833 0-1.508.671-1.508 1.499 0 .828.675 1.499 1.508 1.499h1.837c.833 0 1.508-.671 1.508-1.5 0-.827-.675-1.498-1.508-1.498z"/>
</svg>
