<svg xmlns="http://www.w3.org/2000/svg" width="104" height="78" viewBox="0 0 104 78">
    <g fill="#2B4765" fill-rule="evenodd">
        <path d="M0 77.934v-3.868h1.132c.391 0 .565.039.718.105.359.16.576.528.576.995 0 .523-.293.925-.723 1.046v.01s.038.05.098.155l.832 1.557h-.43l-.865-1.629H.375v1.629H0zm.375-1.97h.909c.462 0 .756-.302.756-.787 0-.319-.125-.555-.348-.676-.114-.06-.25-.094-.544-.094H.375v1.557zm5.363 1.97H7.99v-.341H6.113v-1.436h1.453v-.341H6.113v-1.409h1.78v-.341H5.737v3.868zm5.14-1.959c0 1.128.804 2.025 1.936 2.025.941 0 1.464-.6 1.464-.6l-.218-.27s-.468.518-1.24.518c-.909 0-1.551-.754-1.551-1.678 0-.914.642-1.618 1.54-1.618.718 0 1.164.43 1.164.43l.201-.281S13.712 74 12.798 74c-1.094 0-1.92.853-1.92 1.975zm6.243 0c0-1.111.865-1.975 1.948-1.975 1.082 0 1.948.864 1.948 1.975 0 1.134-.866 2.025-1.948 2.025-1.083 0-1.948-.891-1.948-2.025zm.392 0c0 .947.69 1.673 1.556 1.673.86 0 1.556-.726 1.556-1.673 0-.924-.697-1.623-1.556-1.623-.865 0-1.556.699-1.556 1.623zm7.582 1.959h.392l1.42-3.868h-.403l-1.06 2.938c-.071.198-.148.5-.148.5h-.01s-.077-.302-.147-.5l-1.061-2.938h-.403l1.42 3.868zm4.753 0h2.253v-.341h-1.877v-1.436h1.452v-.341h-1.452v-1.409h1.779v-.341h-2.155v3.868zm5.428 0v-3.868h1.132c.391 0 .565.039.718.105.359.16.576.528.576.995 0 .523-.293.925-.723 1.046v.01s.038.05.098.155l.832 1.557h-.43l-.865-1.629h-.963v1.629h-.375zm.375-1.97h.909c.462 0 .756-.302.756-.787 0-.319-.125-.555-.348-.676-.114-.06-.25-.094-.544-.094h-.773v1.557zm6.157 1.97h.381v-1.662l1.284-2.206h-.424l-.811 1.403c-.12.204-.234.462-.234.462h-.01s-.12-.264-.235-.462l-.81-1.403h-.43l1.29 2.206v1.662zm8.413 0v-3.868h1.235c1.148 0 1.92.71 1.92 1.931 0 1.233-.772 1.937-1.92 1.937h-1.235zm.375-.341h.822c.941 0 1.567-.561 1.567-1.596 0-1.029-.631-1.59-1.567-1.59h-.822v3.186zm5.711-1.618c0-1.111.865-1.975 1.948-1.975 1.082 0 1.947.864 1.947 1.975 0 1.134-.865 2.025-1.947 2.025-1.083 0-1.948-.891-1.948-2.025zm.392 0c0 .947.69 1.673 1.556 1.673.86 0 1.556-.726 1.556-1.673 0-.924-.697-1.623-1.556-1.623-.865 0-1.556.699-1.556 1.623zm6.673 1.959h.376V75.15c0-.204-.033-.523-.033-.523h.011s.185.33.316.523l1.953 2.784h.364v-3.868h-.375v2.784c0 .204.032.523.032.523h-.01s-.185-.33-.316-.523l-1.953-2.784h-.365v3.868zm6.418 0h2.253v-.341h-1.877v-1.436h1.452v-.341h-1.452v-1.409h1.779v-.341H69.79v3.868zm9.213 0v-3.868h1.131c.392 0 .566.039.719.105.359.16.576.528.576.995 0 .523-.293.925-.723 1.046v.01s.038.05.098.155l.832 1.557h-.43l-.865-1.629h-.963v1.629h-.375zm.375-1.97h.909c.462 0 .756-.302.756-.787 0-.319-.125-.555-.348-.676-.114-.06-.25-.094-.544-.094h-.773v1.557zm5.363 1.97h.375v-3.868h-.375v3.868zm3.55-1.937c0 1.15.828 2.003 1.872 2.003.805 0 1.246-.523 1.246-.523h.01s-.005.083-.005.165v.292h.349v-1.849H90.75v.341h.653v.655s-.457.567-1.203.567c-.87 0-1.518-.704-1.518-1.656 0-.92.626-1.64 1.55-1.64a1.87 1.87 0 0 1 1.143.385l.202-.286S91.104 74 90.218 74c-1.1 0-1.926.88-1.926 1.997zm6.701 1.937h.376v-1.766h2.22v1.766h.375v-3.868h-.375v1.76h-2.22v-1.76h-.376v3.868zm7.262 0h.375v-3.527H104v-.341h-3.123v.341h1.377v3.527z"/>
        <g fill-rule="nonzero">
            <path d="M66.674 38.905l20.366-8.21c.166-.062.305-.132.44-.22 1.04-.666 1.81-2.313 2.269-4.62a24.81 24.81 0 0 0 .413-3.372 26.556 26.556 0 0 0 .043-1.496l-.007-.421 2.618-2.262c.98-.848 2.67-1.2 3.91-.815.303.038.447.012.564-.027.15-.13.22-.316.305-.564a36.768 36.768 0 0 0 .415-1.305 102.51 102.51 0 0 0 .6-2.063l.04-.143.793-1.165c-.069-.29-.147-.613-.234-.96a58.335 58.335 0 0 0-.81-2.93c-.555-1.805-1.096-3.11-1.476-3.531-1.91-2.08-4.133-2.652-7.318-1.523-1.594.565-2.534 1.352-3.052 2.42-.435.896-.595 1.973-.607 3.676a28.18 28.18 0 0 0 1.315 4.775c.507 1.481-.108 3.322-1.395 4.234l-.94.665-79.282 9.73-.762.093 1.464 1.52c2.403 2.842 7.575 4.79 11.429 4.297l14.869-1.904.257.14a26.668 26.668 0 0 0 1.048.524 30.79 30.79 0 0 0 2.672 1.116c1.606.58 3.14.971 4.516 1.106.837.083 1.597.068 2.266-.05l11.918-2.101.19.05a12.381 12.381 0 0 1 2.102.789c.929.45 1.668.974 2.15 1.612.676.897.767 1.955.153 2.993l6.758-.058zm.358 1.802l-12.04.102 2.254-1.653c.551-.404.916-.776 1.112-1.104.236-.393.213-.664-.037-.996-.276-.366-.803-.74-1.497-1.077a10.608 10.608 0 0 0-1.588-.613l-11.52 2.03c-.843.15-1.765.167-2.756.07-1.545-.152-3.218-.578-4.953-1.206a32.577 32.577 0 0 1-3.661-1.589c-.011-.006-4.792.597-14.342 1.806-4.454.57-10.233-1.606-13.036-4.92l-1.564-1.849c-.983-1.162-.345-2.518 1.15-2.614l.87-.107 78.159-9.592.795-.097.444-.387c.635-.45.971-1.445.743-2.142a28.128 28.128 0 0 1-.515-1.502 29.88 29.88 0 0 1-.895-3.66l-.014-.16c.008-1.997.2-3.323.788-4.535.735-1.516 2.05-2.617 4.073-3.334 3.874-1.373 6.856-.605 9.256 2.009.63.7 1.228 2.14 1.867 4.215a68.065 68.065 0 0 1 1.167 4.406l.084.38-1.068 1.57a121.117 121.117 0 0 1-.629 2.15c-.327 1.07-.555 1.735-.723 2.03-.237.42-.622.677-1.093.835-.295.098-.599.149-.892.17a7 7 0 0 1-.33.008l-.449-.139c-.646-.2-1.687.017-2.196.457l-1.988 1.717c-.006.382-.02.776-.044 1.201a26.57 26.57 0 0 1-.445 3.62c-.546 2.746-1.499 4.783-3.063 5.787a4 4 0 0 1-.75.378l-20.674 8.335z"/>
            <path d="M80.069 27.635c-.034 1.246-.002 1.744.269 2.401.382.928 1.173 1.56 2.414 1.905 1.213.337 2.438.461 3.632.422.808-.026 1.499-.122 2.032-.241.046-.01-.06-.604-.315-1.78a9.365 9.365 0 0 1-1.776.218 10.293 10.293 0 0 1-3.09-.358c-.733-.203-1.072-.474-1.228-.852-.138-.334-.16-.689-.134-1.666.023-.828.012-1.249-.078-1.762-.11-.619-.422-.74-.939-.8a3.84 3.84 0 0 0-.548-.012c-.382.012-.921.057-1.619.132-1.296.141-3.15.39-5.52.74-4.16.614-9.815 1.522-16.592 2.655a2623.78 2623.78 0 0 0-21.07 3.616 2154.853 2154.853 0 0 0-2.997.527l.314 1.777.183-.033 2.812-.494a2622.017 2622.017 0 0 1 21.055-3.613c6.767-1.132 12.412-2.038 16.557-2.65 2.35-.347 4.184-.593 5.453-.73.486-.054.885-.09 1.193-.11.003.192 0 .419-.008.708zM85.97 17.056l.11.014a6.088 6.088 0 0 1 1.442.388c.321.133.606.29.843.468.286.217.637.696.99 1.348a15.574 15.574 0 0 1 .868 1.956l1.705-.594a14.62 14.62 0 0 0-.272-.705 15.973 15.973 0 0 0-.713-1.516c-.466-.86-.949-1.519-1.488-1.927-.37-.28-.789-.51-1.246-.698a7.866 7.866 0 0 0-2.07-.53l-.17 1.796z"/>
            <path d="M75.076 37.557a4.689 4.689 0 0 0 .15-.676c.16-1.11-.018-2.24-.739-3.228-.773-1.057-2.073-1.77-3.928-2.069-.678-.11-3.382.207-7.998.862a568.826 568.826 0 0 0-7.772 1.16l.28 1.782a201.862 201.862 0 0 1 .664-.103 648.092 648.092 0 0 1 7.081-1.053c4.126-.585 7.068-.93 7.457-.867 1.413.229 2.286.707 2.758 1.353.403.551.508 1.223.41 1.907a2.354 2.354 0 0 1-.074.36l1.711.572z"/>
        </g>
        <path d="M0 64.282S1.428 66 4.021 66c2.43 0 3.84-1.683 3.84-3.684 0-4.02-5.481-3.471-5.481-5.703 0-.885.771-1.505 1.756-1.505 1.46 0 2.577 1.098 2.577 1.098l.92-1.86S6.45 53 4.152 53C1.92 53 .246 54.559.246 56.649c0 3.86 5.499 3.47 5.499 5.72 0 1.027-.805 1.523-1.69 1.523-1.642 0-2.906-1.328-2.906-1.328L0 64.282zm12.308-4.87c0-3.596 2.594-6.412 6.024-6.412s6.024 2.816 6.024 6.411c0 3.702-2.594 6.589-6.024 6.589s-6.024-2.887-6.024-6.589zm2.183 0c0 2.585 1.707 4.498 3.841 4.498 2.134 0 3.84-1.913 3.84-4.499 0-2.48-1.706-4.321-3.84-4.321s-3.84 1.842-3.84 4.321zm15.148 6.375V53.213h4.17c2.1 0 3.594 1.168 3.594 3.24 0 1.17-.526 2.18-1.412 2.693v.035c1.28.408 1.888 1.683 1.888 2.958 0 2.515-1.871 3.648-4.022 3.648H29.64zm2.118-7.438h2.051c.92 0 1.445-.709 1.445-1.612 0-.903-.493-1.559-1.478-1.559h-2.018v3.17zm0 5.473h2.265c1.083 0 1.69-.762 1.69-1.825 0-1.045-.624-1.806-1.69-1.806h-2.265v3.63zm11.553 1.965h7.238v-1.965h-5.12v-3.383h3.922v-1.966h-3.923v-3.295h4.859v-1.965H43.31v12.574zm12.571 0V53.213h3.759c1.263 0 1.838.106 2.347.354 1.165.567 1.904 1.77 1.904 3.436 0 1.505-.739 2.904-1.97 3.436v.035s.164.177.394.62l2.396 4.693h-2.363l-2.314-4.693h-2.036v4.693h-2.117zm2.117-6.677h1.904c1.133 0 1.838-.726 1.838-1.983 0-1.205-.475-1.949-2.133-1.949h-1.609v3.932zm11.816 6.677h7.156v-1.965h-5.038v-10.61h-2.118v12.575zm19.137 0l-.985-3.223h-4.087l-.985 3.223h-2.183l4.103-12.574h2.216l4.104 12.574H88.95zm-3.004-10.396h-.033s-.262 1.24-.492 1.948l-1.034 3.365h3.053l-1.034-3.365c-.214-.708-.46-1.948-.46-1.948zm9.814 10.396V53.213h4.169c2.1 0 3.594 1.168 3.594 3.24 0 1.17-.525 2.18-1.412 2.693v.035c1.28.408 1.888 1.683 1.888 2.958 0 2.515-1.871 3.648-4.021 3.648H95.76zm2.117-7.438h2.052c.919 0 1.444-.709 1.444-1.612 0-.903-.493-1.559-1.477-1.559h-2.02v3.17zm0 5.473h2.265c1.083 0 1.69-.762 1.69-1.825 0-1.045-.623-1.806-1.69-1.806h-2.265v3.63z"/>
        <path fill-rule="nonzero" d="M87.715 14.805l-.039.074a4.181 4.181 0 0 0-.206-.118 2.694 2.694 0 0 1-.279-.07l.02-.069a12.222 12.222 0 0 0-.928-.43c-.933-.387-1.855-.635-2.694-.679-.946-.05-1.716.163-2.29.667-1.82 1.599-3.56 2.016-4.968 1.742a2.312 2.312 0 0 1-.331-.086l.483-1.57c.006.003.046.014.118.028.988.193 2.278-.117 3.737-1.399.897-.788 2.033-1.102 3.325-1.034 1.022.054 2.094.341 3.165.786.292.12.57.248.832.377l.02-.072c.004.001.035.01.088.02.345.075.789.101 1.296.033.739-.1 1.482-.387 2.207-.913.09-.064.178-.133.267-.205 1.058-.862 1.368-1.363 1.803-2.567.052-.145.082-.228.117-.32.246-.647.505-1.127.924-1.63.67-.802 1.27-1.123 2.521-1.548l.147-.05c.799-.274 1.186-.475 1.578-.874.164-.167.294-.352.394-.552.25-.5.31-1.081.241-1.634a2.847 2.847 0 0 0-.038-.23L100.873 2c.027.105.06.267.085.476.11.895.015 1.84-.426 2.722a3.974 3.974 0 0 1-.721 1.01c-.623.635-1.211.94-2.236 1.291l-.15.052c-.98.332-1.354.533-1.764 1.024-.274.328-.439.635-.617 1.104l-.107.29c-.538 1.492-1.017 2.266-2.36 3.359-.112.092-.226.18-.342.264-1.585 1.149-3.176 1.425-4.52 1.213z"/>
    </g>
</svg>
