<svg xmlns="http://www.w3.org/2000/svg" width="29" height="29" viewBox="0 0 29 29">
    <path fill="#16D3BF" fill-rule="evenodd" d="M24.167 9.1a8.366 8.366 0 0 1-2.285.642 4.008 4.008 0 0 0 1.756-2.209 7.895 7.895 0 0 1-2.53.963A3.932 3.932 0 0 0 18.22 7.25a3.964 3.964 0 0 0-3.964 3.965c0 .302.018.623.094.906a11.265 11.265 0 0 1-8.194-4.154 4.024 4.024 0 0 0-.548 2.002c0 1.378.642 2.586 1.719 3.304-.661-.02-1.284-.208-1.888-.491v.038c0 1.925 1.453 3.53 3.266 3.889-.34.094-.604.151-.963.151-.246 0-.491-.038-.736-.075a3.989 3.989 0 0 0 3.7 2.756 7.985 7.985 0 0 1-5.872 1.643 11.3 11.3 0 0 0 6.08 1.774c7.288 0 11.29-6.041 11.29-11.29 0-.17 0-.34-.019-.51A7.625 7.625 0 0 0 24.167 9.1zM29 5.438v18.125A5.439 5.439 0 0 1 23.562 29H5.438A5.439 5.439 0 0 1 0 23.562V5.438A5.439 5.439 0 0 1 5.438 0h18.125A5.439 5.439 0 0 1 29 5.438z"/>
</svg>
