<svg xmlns="http://www.w3.org/2000/svg" width="35" height="58" viewBox="0 0 35 58">
    <path fill="#16D3BF" fill-rule="nonzero" d="M13.72 56.108A1.676 1.676 0 0 1 12.046 58a1.681 1.681 0 0 1-1.668-1.457L8.401 41.506a69.225 69.225 0 0 1 .126-18.971 1.683 1.683 0 0 1 1.907-1.418c.92.132 1.56.98 1.426 1.896a65.902 65.902 0 0 0-.12 18.059l1.98 15.036zm12.29-33.573c.913 6.288.956 12.67.127 18.971l-1.978 15.037a1.681 1.681 0 0 1-1.889 1.443 1.677 1.677 0 0 1-1.451-1.878l1.978-15.036a65.889 65.889 0 0 0-.12-18.059 1.676 1.676 0 0 1 1.426-1.896 1.682 1.682 0 0 1 1.908 1.418zM17.27 3.349c2.566 0 4.654 2.076 4.654 4.628s-2.088 4.628-4.654 4.628c-2.567 0-4.655-2.076-4.655-4.628s2.088-4.628 4.655-4.628zm5.854 10.074a7.922 7.922 0 0 0 2.168-5.446C25.291 3.578 21.692 0 17.27 0c-4.424 0-8.023 3.578-8.023 7.977 0 2.133.848 4.071 2.224 5.504-.383.112-.76.236-1.128.373-3.68 1.37-6.412 3.895-8.117 7.506C.748 24.486-.042 28.26.002 31.988a1.68 1.68 0 0 0 1.683 1.655h.02A1.68 1.68 0 0 0 3.37 31.95c-.038-3.233.638-6.488 1.904-9.167 1.318-2.79 3.42-4.74 6.25-5.793 2.548-.948 5.744-1.175 9.241-.653 3.38.503 6.037 2.337 7.9 5.451 1.657 2.771 2.546 6.38 2.503 10.162a1.68 1.68 0 0 0 1.684 1.693 1.68 1.68 0 0 0 1.684-1.655c.09-7.855-3.426-16.313-11.413-18.565z"/>
</svg>
